<svg width="16" height="16" viewBox="0 0 16 16" fill="none" xmlns="http://www.w3.org/2000/svg">
<g clip-path="url(#clip0_32_6)">
<path d="M8 11.9999V3.33325" stroke="white" stroke-width="1.33333" stroke-linecap="round" stroke-linejoin="round"/>
<path d="M10 8.66667C9.4232 8.49806 8.91656 8.14708 8.556 7.66633C8.19544 7.18558 8.00036 6.60094 8 6C7.99964 6.60094 7.80456 7.18558 7.444 7.66633C7.08344 8.14708 6.5768 8.49806 6 8.66667" stroke="white" stroke-width="1.33333" stroke-linecap="round" stroke-linejoin="round"/>
<path d="M11.732 4.33334C11.8854 4.06767 11.9756 3.77026 11.9957 3.46414C12.0158 3.15801 11.9652 2.85137 11.8478 2.56794C11.7304 2.2845 11.5494 2.03187 11.3187 1.82959C11.0881 1.62731 10.814 1.4808 10.5176 1.4014C10.2213 1.322 9.91069 1.31183 9.6098 1.37168C9.30891 1.43154 9.02583 1.55981 8.78244 1.74657C8.53906 1.93333 8.3419 2.17358 8.20623 2.44873C8.07055 2.72388 7.99999 3.02656 8 3.33334C8.00001 3.02656 7.92945 2.72388 7.79377 2.44873C7.6581 2.17358 7.46094 1.93333 7.21756 1.74657C6.97417 1.55981 6.69109 1.43154 6.3902 1.37168C6.08931 1.31183 5.77868 1.322 5.48236 1.4014C5.18603 1.4808 4.91193 1.62731 4.68129 1.82959C4.45064 2.03187 4.26961 2.2845 4.15222 2.56794C4.03483 2.85137 3.98421 3.15801 4.00429 3.46414C4.02436 3.77026 4.11459 4.06767 4.268 4.33334" stroke="white" stroke-width="1.33333" stroke-linecap="round" stroke-linejoin="round"/>
<path d="M11.998 3.41675C12.3899 3.51751 12.7537 3.70611 13.0619 3.96829C13.3701 4.23046 13.6146 4.55933 13.7768 4.92998C13.9391 5.30063 14.0149 5.70334 13.9985 6.10762C13.982 6.5119 13.8738 6.90714 13.682 7.26342" stroke="white" stroke-width="1.33333" stroke-linecap="round" stroke-linejoin="round"/>
<path d="M12 11.9999C12.587 11.9999 13.1576 11.8062 13.6233 11.4488C14.089 11.0915 14.4238 10.5905 14.5757 10.0235C14.7276 9.45645 14.6882 8.85516 14.4636 8.31284C14.239 7.77051 13.8417 7.31745 13.3333 7.02393" stroke="white" stroke-width="1.33333" stroke-linecap="round" stroke-linejoin="round"/>
<path d="M13.3113 11.6553C13.358 12.0168 13.3301 12.384 13.2294 12.7343C13.1286 13.0846 12.9571 13.4105 12.7254 13.6919C12.4938 13.9733 12.2069 14.2043 11.8825 14.3704C11.5581 14.5366 11.203 14.6346 10.8393 14.6582C10.4756 14.6818 10.1109 14.6306 9.7677 14.5077C9.42454 14.3848 9.1102 14.1929 8.84412 13.9438C8.57803 13.6947 8.36584 13.3937 8.22065 13.0593C8.07546 12.725 8.00035 12.3644 7.99996 11.9999C7.99957 12.3644 7.92446 12.725 7.77927 13.0593C7.63407 13.3937 7.42188 13.6947 7.1558 13.9438C6.88971 14.1929 6.57538 14.3848 6.23222 14.5077C5.88905 14.6306 5.52434 14.6818 5.16061 14.6582C4.79688 14.6346 4.44184 14.5366 4.11744 14.3704C3.79303 14.2043 3.50614 13.9733 3.27448 13.6919C3.04282 13.4105 2.87131 13.0846 2.77055 12.7343C2.66978 12.384 2.6419 12.0168 2.68862 11.6553" stroke="white" stroke-width="1.33333" stroke-linecap="round" stroke-linejoin="round"/>
<path d="M4.00005 11.9999C3.41304 11.9999 2.84245 11.8062 2.37676 11.4488C1.91106 11.0915 1.57629 10.5905 1.42436 10.0235C1.27243 9.45645 1.31184 8.85516 1.53646 8.31284C1.76108 7.77051 2.15837 7.31745 2.66671 7.02393" stroke="white" stroke-width="1.33333" stroke-linecap="round" stroke-linejoin="round"/>
<path d="M4.00199 3.41675C3.61013 3.51751 3.24633 3.70611 2.93815 3.96829C2.62997 4.23046 2.38549 4.55933 2.22322 4.92998C2.06096 5.30063 1.98517 5.70334 2.00159 6.10762C2.01801 6.5119 2.12621 6.90714 2.31799 7.26342" stroke="white" stroke-width="1.33333" stroke-linecap="round" stroke-linejoin="round"/>
</g>
<defs>
<clipPath id="clip0_32_6">
<rect width="16" height="16" fill="white"/>
</clipPath>
</defs>
</svg>
