<svg width="20" height="20" viewBox="0 0 20 20" fill="none" xmlns="http://www.w3.org/2000/svg">
<path d="M10 15.8333V18.3333" stroke="#A0A0A0" stroke-width="1.66667" stroke-linecap="round" stroke-linejoin="round"/>
<path d="M15.8334 8.33331V9.99998C15.8334 11.5471 15.2188 13.0308 14.1249 14.1248C13.0309 15.2187 11.5472 15.8333 10.0001 15.8333C8.45299 15.8333 6.96925 15.2187 5.87529 14.1248C4.78133 13.0308 4.16675 11.5471 4.16675 9.99998V8.33331" stroke="#A0A0A0" stroke-width="1.66667" stroke-linecap="round" stroke-linejoin="round"/>
<path d="M12.5 4.16669C12.5 2.78598 11.3807 1.66669 10 1.66669C8.61929 1.66669 7.5 2.78598 7.5 4.16669V10C7.5 11.3807 8.61929 12.5 10 12.5C11.3807 12.5 12.5 11.3807 12.5 10V4.16669Z" stroke="#A0A0A0" stroke-width="1.66667" stroke-linecap="round" stroke-linejoin="round"/>
</svg>
